<svg xmlns="http://www.w3.org/2000/svg" width="1920" height="1080" viewBox="0 0 1920 1080">
  <defs>
    <linearGradient id="ratingGradient" x1="0%" y1="0%" x2="100%" y2="100%">
      <stop offset="0%" style="stop-color:#667eea;stop-opacity:1" />
      <stop offset="100%" style="stop-color:#764ba2;stop-opacity:1" />
    </linearGradient>
  </defs>

  <!-- Background -->
  <rect width="1920" height="1080" fill="#1a1a2e"/>

  <!-- Header -->
  <rect x="200" y="100" width="1520" height="120" fill="url(#ratingGradient)" rx="15"/>
  <text x="960" y="140" font-family="'Inter', sans-serif" font-size="24" fill="white" text-anchor="middle" font-weight="bold">
    Rate Your Experience
  </text>
  <text x="960" y="180" font-family="'Inter', sans-serif" font-size="18" fill="white" text-anchor="middle" opacity="0.9">
    How would you rate this Docker tutorial?
  </text>

  <!-- Rating Scale -->
  <g transform="translate(960, 400)">
    <!-- Scale Labels -->
    <text x="-300" y="-30" font-family="'Inter', sans-serif" font-size="16" fill="white" text-anchor="middle">
      Poor
    </text>
    <text x="300" y="-30" font-family="'Inter', sans-serif" font-size="16" fill="white" text-anchor="middle">
      Excellent
    </text>

    <!-- Star Rating -->
    <g id="star-rating">
      <g transform="translate(-200, 0)">
        <polygon points="0,-20 6,-6 20,-6 10,2 15,16 0,8 -15,16 -10,2 -20,-6 -6,-6"
                 fill="#444" stroke="#666" stroke-width="2" opacity="0">
          <animate attributeName="opacity" values="0;1" dur="0.3s" begin="0.5s" fill="freeze"/>
          <animate attributeName="fill" values="#444;#ffd700;#444" dur="0.5s" begin="2s" fill="freeze"/>
        </polygon>
      </g>
      <g transform="translate(-100, 0)">
        <polygon points="0,-20 6,-6 20,-6 10,2 15,16 0,8 -15,16 -10,2 -20,-6 -6,-6"
                 fill="#444" stroke="#666" stroke-width="2" opacity="0">
          <animate attributeName="opacity" values="0;1" dur="0.3s" begin="0.7s" fill="freeze"/>
          <animate attributeName="fill" values="#444;#ffd700;#444" dur="0.5s" begin="2.2s" fill="freeze"/>
        </polygon>
      </g>
      <g transform="translate(0, 0)">
        <polygon points="0,-20 6,-6 20,-6 10,2 15,16 0,8 -15,16 -10,2 -20,-6 -6,-6"
                 fill="#444" stroke="#666" stroke-width="2" opacity="0">
          <animate attributeName="opacity" values="0;1" dur="0.3s" begin="0.9s" fill="freeze"/>
          <animate attributeName="fill" values="#444;#ffd700;#444" dur="0.5s" begin="2.4s" fill="freeze"/>
        </polygon>
      </g>
      <g transform="translate(100, 0)">
        <polygon points="0,-20 6,-6 20,-6 10,2 15,16 0,8 -15,16 -10,2 -20,-6 -6,-6"
                 fill="#444" stroke="#666" stroke-width="2" opacity="0">
          <animate attributeName="opacity" values="0;1" dur="0.3s" begin="1.1s" fill="freeze"/>
          <animate attributeName="fill" values="#444;#ffd700;#444" dur="0.5s" begin="2.6s" fill="freeze"/>
        </polygon>
      </g>
      <g transform="translate(200, 0)">
        <polygon points="0,-20 6,-6 20,-6 10,2 15,16 0,8 -15,16 -10,2 -20,-6 -6,-6"
                 fill="#444" stroke="#666" stroke-width="2" opacity="0">
          <animate attributeName="opacity" values="0;1" dur="0.3s" begin="1.3s" fill="freeze"/>
          <animate attributeName="fill" values="#444;#ffd700;#444" dur="0.5s" begin="2.8s" fill="freeze"/>
        </polygon>
      </g>
    </g>

    <!-- Hover Effect Simulation -->
    <circle cx="100" cy="0" r="35" fill="transparent" opacity="0">
      <animate attributeName="fill" values="transparent;#667eea" dur="0.3s" begin="3.5s" fill="freeze"/>
      <animate attributeName="opacity" values="0;0.2" dur="0.3s" begin="3.5s" fill="freeze"/>
    </circle>
  </g>

  <!-- Selected Rating Display -->
  <g transform="translate(960, 600)" opacity="0">
    <animate attributeName="opacity" values="0;1" dur="0.5s" begin="4s" fill="freeze"/>
    <text x="0" y="0" font-family="'Inter', sans-serif" font-size="24" fill="#ffd700" text-anchor="middle" font-weight="bold">
      ★★★★☆
    </text>
    <text x="0" y="40" font-family="'Inter', sans-serif" font-size="18" fill="white" text-anchor="middle">
      4 out of 5 stars
    </text>
    <text x="0" y="70" font-family="'Inter', sans-serif" font-size="14" fill="#cccccc" text-anchor="middle">
      "Great tutorial! Very clear explanations."
    </text>
  </g>

  <!-- Feedback Form -->
  <rect x="400" y="750" width="1120" height="200" fill="#2d2d4a" stroke="#667eea" stroke-width="2" rx="10" opacity="0">
    <animate attributeName="opacity" values="0;1" dur="0.5s" begin="4.5s" fill="freeze"/>
  </rect>
  <text x="960" y="780" font-family="'Inter', sans-serif" font-size="16" fill="white" text-anchor="middle" opacity="0">
    <animate attributeName="opacity" values="0;1" dur="0.5s" begin="4.5s" fill="freeze"/>
    Additional Comments (Optional)
  </text>

  <!-- Simulated typing -->
  <text x="420" y="820" font-family="'Inter', sans-serif" font-size="14" fill="#cccccc" opacity="0">
    <animate attributeName="opacity" values="0;1" dur="0.5s" begin="5s" fill="freeze"/>
    The Docker examples were really helpful for understanding
  </text>
  <text x="420" y="845" font-family="'Inter', sans-serif" font-size="14" fill="#cccccc" opacity="0">
    <animate attributeName="opacity" values="0;1" dur="0.5s" begin="5.5s" fill="freeze"/>
    containerization concepts. Would love more advanced topics!
  </text>

  <!-- Cursor -->
  <rect x="600" y="850" width="2" height="16" fill="#667eea" opacity="0">
    <animate attributeName="opacity" values="0;1;0" dur="1s" begin="6s" repeatCount="indefinite"/>
  </rect>

  <!-- Submit Button -->
  <g transform="translate(960, 980)" opacity="0">
    <animate attributeName="opacity" values="0;1" dur="0.5s" begin="6s" fill="freeze"/>
    <rect x="-100" y="-25" width="200" height="50" fill="#10b981" rx="25"/>
    <text x="0" y="5" font-family="'Inter', sans-serif" font-size="16" fill="white" text-anchor="middle">
      Submit Feedback
    </text>
  </g>
</svg>