<svg xmlns="http://www.w3.org/2000/svg" width="1920" height="1080" viewBox="0 0 1920 1080">
  <defs>
    <linearGradient id="goGradient" x1="0%" y1="0%" x2="100%" y2="100%">
      <stop offset="0%" style="stop-color:#00add8;stop-opacity:1" />
      <stop offset="100%" style="stop-color:#007d9c;stop-opacity:1" />
    </linearGradient>
  </defs>

  <!-- Editor Background -->
  <rect width="1920" height="1080" fill="#1e1e1e"/>

  <!-- Title Bar -->
  <rect width="1920" height="60" fill="#2d2d30"/>
  <text x="960" y="40" font-family="'Cascadia Code', monospace" font-size="24" fill="#00add8" text-anchor="middle">Go Microservice Handler</text>

  <!-- Code Content -->
  <g font-family="'Cascadia Code', monospace" font-size="18">
    <!-- Package Declaration -->
    <text x="100" y="90" fill="#c586c0">package</text>
    <text x="200" y="90" fill="#d4d4d4">main</text>

    <!-- Imports -->
    <text x="100" y="150" fill="#c586c0">import</text>
    <text x="180" y="150" fill="#d4d4d4">(</text>
    <text x="130" y="180" fill="#ce9178">"encoding/json"</text>
    <text x="130" y="210" fill="#ce9178">"net/http"</text>
    <text x="130" y="240" fill="#ce9178">"github.com/gorilla/mux"</text>
    <text x="100" y="270" fill="#d4d4d4">)</text>

    <!-- Struct Definition -->
    <text x="100" y="330" fill="#c586c0">type</text>
    <text x="160" y="330" fill="#4ec9b0">Response</text>
    <text x="260" y="330" fill="#c586c0">struct</text>
    <text x="340" y="330" fill="#d4d4d4">{</text>
    <text x="130" y="360" fill="#9cdcfe">Status</text>
    <text x="230" y="360" fill="#4ec9b0">string</text>
    <text x="320" y="360" fill="#ce9178">&#96;json:"status"&#96;</text>
    <text x="130" y="390" fill="#9cdcfe">Message</text>
    <text x="240" y="390" fill="#4ec9b0">string</text>
    <text x="330" y="390" fill="#ce9178">&#96;json:"message"&#96;</text>
    <text x="130" y="420" fill="#9cdcfe">Data</text>
    <text x="200" y="420" fill="#c586c0">interface{}</text>
    <text x="340" y="420" fill="#ce9178">&#96;json:"data"&#96;</text>
    <text x="100" y="450" fill="#d4d4d4">}</text>

    <!-- Handler Function -->
    <text x="100" y="510" fill="#c586c0">func</text>
    <text x="160" y="510" fill="#dcdcaa">HandleRequest</text>
    <text x="320" y="510" fill="#d4d4d4">(</text>
    <text x="340" y="510" fill="#9cdcfe">w</text>
    <text x="360" y="510" fill="#4ec9b0">http.ResponseWriter</text>
    <text x="560" y="510" fill="#d4d4d4">,</text>
    <text x="580" y="510" fill="#9cdcfe">r</text>
    <text x="600" y="510" fill="#d4d4d4">*</text>
    <text x="620" y="510" fill="#4ec9b0">http.Request</text>
    <text x="760" y="510" fill="#d4d4d4">) {</text>

    <!-- Function Body -->
    <text x="130" y="540" fill="#9cdcfe">response</text>
    <text x="230" y="540" fill="#d4d4d4">:=</text>
    <text x="260" y="540" fill="#4ec9b0">Response</text>
    <text x="360" y="540" fill="#d4d4d4">{</text>
    <text x="160" y="570" fill="#9cdcfe">Status</text>
    <text x="240" y="570" fill="#d4d4d4">:</text>
    <text x="270" y="570" fill="#ce9178">"success"</text>
    <text x="380" y="570" fill="#d4d4d4">,</text>
    <text x="160" y="600" fill="#9cdcfe">Message</text>
    <text x="250" y="600" fill="#d4d4d4">:</text>
    <text x="280" y="600" fill="#ce9178">"Request processed"</text>
    <text x="480" y="600" fill="#d4d4d4">,</text>
    <text x="130" y="630" fill="#d4d4d4">}</text>

    <!-- JSON Encoding -->
    <text x="130" y="690" fill="#9cdcfe">w</text>
    <text x="150" y="690" fill="#d4d4d4">.</text>
    <text x="170" y="690" fill="#dcdcaa">Header</text>
    <text x="250" y="690" fill="#d4d4d4">().</text>
    <text x="290" y="690" fill="#dcdcaa">Set</text>
    <text x="330" y="690" fill="#d4d4d4">(</text>
    <text x="350" y="690" fill="#ce9178">"Content-Type"</text>
    <text x="500" y="690" fill="#d4d4d4">,</text>
    <text x="520" y="690" fill="#ce9178">"application/json"</text>
    <text x="700" y="690" fill="#d4d4d4">)</text>
    <text x="130" y="720" fill="#9cdcfe">json</text>
    <text x="180" y="720" fill="#d4d4d4">.</text>
    <text x="200" y="720" fill="#dcdcaa">NewEncoder</text>
    <text x="320" y="720" fill="#d4d4d4">(</text>
    <text x="340" y="720" fill="#9cdcfe">w</text>
    <text x="360" y="720" fill="#d4d4d4">).</text>
    <text x="400" y="720" fill="#dcdcaa">Encode</text>
    <text x="480" y="720" fill="#d4d4d4">(</text>
    <text x="500" y="720" fill="#9cdcfe">response</text>
    <text x="600" y="720" fill="#d4d4d4">)</text>
    <text x="100" y="750" fill="#d4d4d4">}</text>
  </g>

  <!-- Go Gopher Mascot -->
  <g transform="translate(1500, 800)" opacity="0.3">
    <ellipse cx="0" cy="0" rx="60" ry="80" fill="#00add8"/>
    <circle cx="-20" cy="-20" r="8" fill="#ffffff"/>
    <circle cx="20" cy="-20" r="8" fill="#ffffff"/>
  </g>
</svg>