<svg xmlns="http://www.w3.org/2000/svg" width="1920" height="1080" viewBox="0 0 1920 1080">
  <defs>
    <linearGradient id="k8sGradient" x1="0%" y1="0%" x2="100%" y2="100%">
      <stop offset="0%" style="stop-color:#326ce5;stop-opacity:1" />
      <stop offset="100%" style="stop-color:#366bc4;stop-opacity:1" />
    </linearGradient>
  </defs>

  <!-- Editor Background -->
  <rect width="1920" height="1080" fill="#1e1e1e"/>

  <!-- Title Bar with K8s Icon -->
  <rect width="1920" height="60" fill="#2d2d30"/>
  <text x="960" y="40" font-family="'Cascadia Code', monospace" font-size="24" fill="#326ce5" text-anchor="middle">Kubernetes Deployment Configuration</text>

  <!-- Line Numbers -->
  <rect x="0" y="60" width="80" height="1020" fill="#252526"/>

  <!-- YAML Content with Indentation Guides -->
  <g font-family="'Cascadia Code', monospace" font-size="18">
    <!-- API Version -->
    <text x="100" y="90" fill="#9cdcfe">apiVersion</text>
    <text x="230" y="90" fill="#d4d4d4">:</text>
    <text x="250" y="90" fill="#ce9178">apps/v1</text>

    <!-- Kind -->
    <text x="100" y="120" fill="#9cdcfe">kind</text>
    <text x="160" y="120" fill="#d4d4d4">:</text>
    <text x="180" y="120" fill="#ce9178">Deployment</text>

    <!-- Metadata -->
    <text x="100" y="150" fill="#9cdcfe">metadata</text>
    <text x="210" y="150" fill="#d4d4d4">:</text>
    <text x="130" y="180" fill="#9cdcfe">name</text>
    <text x="190" y="180" fill="#d4d4d4">:</text>
    <text x="210" y="180" fill="#ce9178">nginx-deployment</text>
    <text x="130" y="210" fill="#9cdcfe">labels</text>
    <text x="210" y="210" fill="#d4d4d4">:</text>
    <text x="160" y="240" fill="#9cdcfe">app</text>
    <text x="210" y="240" fill="#d4d4d4">:</text>
    <text x="230" y="240" fill="#ce9178">nginx</text>

    <!-- Spec -->
    <text x="100" y="270" fill="#9cdcfe">spec</text>
    <text x="160" y="270" fill="#d4d4d4">:</text>
    <text x="130" y="300" fill="#9cdcfe">replicas</text>
    <text x="230" y="300" fill="#d4d4d4">:</text>
    <text x="250" y="300" fill="#b5cea8">3</text>

    <!-- Selector -->
    <text x="130" y="330" fill="#9cdcfe">selector</text>
    <text x="230" y="330" fill="#d4d4d4">:</text>
    <text x="160" y="360" fill="#9cdcfe">matchLabels</text>
    <text x="290" y="360" fill="#d4d4d4">:</text>
    <text x="190" y="390" fill="#9cdcfe">app</text>
    <text x="240" y="390" fill="#d4d4d4">:</text>
    <text x="260" y="390" fill="#ce9178">nginx</text>

    <!-- Template -->
    <text x="130" y="420" fill="#9cdcfe">template</text>
    <text x="230" y="420" fill="#d4d4d4">:</text>
    <text x="160" y="450" fill="#9cdcfe">metadata</text>
    <text x="270" y="450" fill="#d4d4d4">:</text>
    <text x="190" y="480" fill="#9cdcfe">labels</text>
    <text x="270" y="480" fill="#d4d4d4">:</text>
    <text x="220" y="510" fill="#9cdcfe">app</text>
    <text x="270" y="510" fill="#d4d4d4">:</text>
    <text x="290" y="510" fill="#ce9178">nginx</text>
  </g>

  <!-- Indentation Lines -->
  <g stroke="#404040" stroke-width="1" opacity="0.5">
    <line x1="120" y1="180" x2="120" y2="240"/>
    <line x1="150" y1="240" x2="150" y2="240"/>
    <line x1="120" y1="300" x2="120" y2="510"/>
    <line x1="150" y1="360" x2="150" y2="390"/>
    <line x1="150" y1="450" x2="150" y2="510"/>
    <line x1="180" y1="480" x2="180" y2="510"/>
  </g>

  <!-- Validation Indicators -->
  <circle cx="70" cy="90" r="4" fill="#10b981">
    <animate attributeName="opacity" values="0;1;1;0" dur="2s" repeatCount="indefinite"/>
  </circle>
  <circle cx="70" cy="120" r="4" fill="#10b981">
    <animate attributeName="opacity" values="0;0;1;1;0" dur="2s" begin="0.2s" repeatCount="indefinite"/>
  </circle>
  <circle cx="70" cy="150" r="4" fill="#10b981">
    <animate attributeName="opacity" values="0;0;1;1;0" dur="2s" begin="0.4s" repeatCount="indefinite"/>
  </circle>
</svg>