<svg xmlns="http://www.w3.org/2000/svg" width="800" height="600" viewBox="0 0 800 600">
  <defs>
    <style>
      .cloud-region { fill: #f7fafc; stroke: #cbd5e0; stroke-width: 2; stroke-dasharray: 10,5; rx: 10; }
      .availability-zone { fill: #edf2f7; stroke: #a0aec0; stroke-width: 1; stroke-dasharray: 5,3; rx: 5; }
      .service { fill: #ffffff; stroke: #4299e1; stroke-width: 2; rx: 4; }
      .database { fill: #f0fff4; stroke: #48bb78; stroke-width: 2; rx: 4; }
      .storage { fill: #fef5e7; stroke: #f6ad55; stroke-width: 2; rx: 4; }
      .network { fill: #fbb6ce; stroke: #ed64a6; stroke-width: 2; rx: 4; }
      .text { font-size: 11px; fill: #2d3748; text-anchor: middle; }
      .title { font-size: 14px; font-weight: bold; fill: #2d3748; }
      @keyframes cloudFloat {
        0%, 100% { transform: translateY(0px); }
        50% { transform: translateY(-5px); }
      }
      .cloud-region { animation: cloudFloat 3s ease-in-out infinite; }
    </style>
  </defs>
  
  <!-- Cloud Region -->
  <rect class="cloud-region" x="30" y="30" width="740" height="540"/>
  <text class="title" x="50" y="60">AWS Region: us-east-1</text>
  
  <!-- VPC -->
  <rect class="availability-zone" x="60" y="100" width="680" height="440"/>
  <text class="title" x="80" y="125">Virtual Private Cloud (VPC)</text>
  
  <!-- Public Subnet -->
  <g id="public-subnet">
    <rect class="availability-zone" x="90" y="150" width="300" height="170"/>
    <text class="text" x="100" y="170">Public Subnet</text>
    
    <rect class="network" x="110" y="190" width="100" height="50"/>
    <text class="text" x="160" y="220">Load Balancer</text>
    
    <rect class="network" x="230" y="190" width="100" height="50"/>
    <text class="text" x="280" y="220">NAT Gateway</text>
    
    <rect class="service" x="110" y="260" width="100" height="50"/>
    <text class="text" x="160" y="290">Web Server</text>
  </g>
  
  <!-- Private Subnet -->
  <g id="private-subnet">
    <rect class="availability-zone" x="420" y="150" width="300" height="170"/>
    <text class="text" x="430" y="170">Private Subnet</text>
    
    <rect class="service" x="440" y="190" width="100" height="50"/>
    <text class="text" x="490" y="220">App Server 1</text>
    
    <rect class="service" x="560" y="190" width="100" height="50"/>
    <text class="text" x="610" y="220">App Server 2</text>
    
    <rect class="service" x="500" y="260" width="100" height="50"/>
    <text class="text" x="550" y="290">Worker Node</text>
  </g>
  
  <!-- Database Subnet -->
  <g id="database-subnet">
    <rect class="availability-zone" x="90" y="340" width="630" height="170"/>
    <text class="text" x="100" y="360">Database Subnet</text>
    
    <rect class="database" x="110" y="380" width="120" height="60"/>
    <text class="text" x="170" y="415">RDS Primary</text>
    
    <rect class="database" x="260" y="380" width="120" height="60"/>
    <text class="text" x="320" y="415">RDS Standby</text>
    
    <rect class="database" x="410" y="380" width="120" height="60"/>
    <text class="text" x="470" y="415">ElastiCache</text>
    
    <rect class="storage" x="560" y="380" width="120" height="60"/>
    <text class="text" x="620" y="415">S3 Bucket</text>
  </g>
  
  <!-- External Services -->
  <rect class="service" x="90" y="460" width="100" height="40"/>
  <text class="text" x="140" y="485">CloudWatch</text>
  
  <rect class="service" x="210" y="460" width="100" height="40"/>
  <text class="text" x="260" y="485">Route 53</text>
  
  <rect class="service" x="330" y="460" width="100" height="40"/>
  <text class="text" x="380" y="485">CloudFront</text>
</svg>