<svg xmlns="http://www.w3.org/2000/svg" width="800" height="600" viewBox="0 0 800 600">
  <defs>
    <style>
      .service-box { fill: #e6fffa; stroke: #00b5d8; stroke-width: 2; rx: 8; }
      .api-gateway { fill: #fef5e7; stroke: #f39c12; stroke-width: 3; rx: 8; }
      .database { fill: #f0f4f8; stroke: #718096; stroke-width: 2; rx: 4; }
      .client { fill: #fed7d7; stroke: #fc8181; stroke-width: 2; rx: 8; }
      .text { font-size: 12px; fill: #2d3748; text-anchor: middle; }
      .title { font-size: 14px; font-weight: bold; fill: #2d3748; text-anchor: middle; }
      .connection { stroke: #cbd5e0; stroke-width: 1; fill: none; stroke-dasharray: 3,3; }
      @keyframes pulse {
        0%, 100% { opacity: 1; }
        50% { opacity: 0.5; }
      }
      .service-box { animation: pulse 2s ease-in-out infinite; }
    </style>
  </defs>
  
  <!-- Clients -->
  <rect class="client" x="50" y="50" width="100" height="60"/>
  <text class="title" x="100" y="85">Web Client</text>
  
  <rect class="client" x="200" y="50" width="100" height="60"/>
  <text class="title" x="250" y="85">Mobile App</text>
  
  <rect class="client" x="350" y="50" width="100" height="60"/>
  <text class="title" x="400" y="85">Third Party</text>
  
  <!-- API Gateway -->
  <rect class="api-gateway" x="150" y="180" width="200" height="80"/>
  <text class="title" x="250" y="215">API Gateway</text>
  <text class="text" x="250" y="235">Load Balancer</text>
  
  <!-- Microservices -->
  <g id="services">
    <!-- User Service -->
    <rect class="service-box" x="50" y="330" width="120" height="80"/>
    <text class="title" x="110" y="360">User Service</text>
    <rect class="database" x="60" y="430" width="100" height="40"/>
    <text class="text" x="110" y="455">User DB</text>
    
    <!-- Product Service -->
    <rect class="service-box" x="200" y="330" width="120" height="80"/>
    <text class="title" x="260" y="360">Product Service</text>
    <rect class="database" x="210" y="430" width="100" height="40"/>
    <text class="text" x="260" y="455">Product DB</text>
    
    <!-- Order Service -->
    <rect class="service-box" x="350" y="330" width="120" height="80"/>
    <text class="title" x="410" y="360">Order Service</text>
    <rect class="database" x="360" y="430" width="100" height="40"/>
    <text class="text" x="410" y="455">Order DB</text>
    
    <!-- Payment Service -->
    <rect class="service-box" x="500" y="330" width="120" height="80"/>
    <text class="title" x="560" y="360">Payment Service</text>
    <rect class="database" x="510" y="430" width="100" height="40"/>
    <text class="text" x="560" y="455">Payment DB</text>
    
    <!-- Notification Service -->
    <rect class="service-box" x="650" y="330" width="120" height="80"/>
    <text class="title" x="710" y="360">Notification</text>
    <rect class="database" x="660" y="430" width="100" height="40"/>
    <text class="text" x="710" y="455">Queue</text>
  </g>
  
  <!-- Message Bus -->
  <rect class="api-gateway" x="50" y="510" width="720" height="50"/>
  <text class="title" x="410" y="540">Message Bus (RabbitMQ / Kafka)</text>
  
  <!-- Connections -->
  <path class="connection" d="M 100 110 L 250 180"/>
  <path class="connection" d="M 250 110 L 250 180"/>
  <path class="connection" d="M 400 110 L 250 180"/>
  <path class="connection" d="M 250 260 L 110 330"/>
  <path class="connection" d="M 250 260 L 260 330"/>
  <path class="connection" d="M 250 260 L 410 330"/>
  <path class="connection" d="M 250 260 L 560 330"/>
  <path class="connection" d="M 250 260 L 710 330"/>
</svg>