<svg xmlns="http://www.w3.org/2000/svg" width="800" height="600" viewBox="0 0 800 600">
  <defs>
    <style>
      .api-gateway { fill: #fef3c7; stroke: #f59e0b; stroke-width: 2; rx: 8; }
      .lambda { fill: #fed7e2; stroke: #f43f5e; stroke-width: 2; rx: 8; }
      .database { fill: #d1fae5; stroke: #10b981; stroke-width: 2; rx: 8; }
      .storage { fill: #e0e7ff; stroke: #6366f1; stroke-width: 2; rx: 8; }
      .queue { fill: #fce7f3; stroke: #ec4899; stroke-width: 2; rx: 8; }
      .text { font-size: 11px; fill: #1f2937; text-anchor: middle; }
      .title { font-size: 14px; font-weight: bold; fill: #1f2937; }
      @keyframes scaleUp {
        0%, 100% { transform: scale(1); }
        50% { transform: scale(1.05); }
      }
      .lambda { animation: scaleUp 2s ease-in-out infinite; }
    </style>
  </defs>
  
  <!-- Client Layer -->
  <text class="title" x="50" y="30">Client Applications</text>
  <rect class="api-gateway" x="50" y="50" width="100" height="50"/>
  <text class="text" x="100" y="80">Web App</text>
  
  <rect class="api-gateway" x="170" y="50" width="100" height="50"/>
  <text class="text" x="220" y="80">Mobile App</text>
  
  <rect class="api-gateway" x="290" y="50" width="100" height="50"/>
  <text class="text" x="340" y="80">IoT Device</text>
  
  <!-- API Gateway -->
  <rect class="api-gateway" x="150" y="140" width="200" height="60"/>
  <text class="title" x="250" y="165">API Gateway</text>
  <text class="text" x="250" y="185">REST / GraphQL / WebSocket</text>
  
  <!-- Lambda Functions -->
  <text class="title" x="100" y="240">Lambda Functions</text>
  
  <rect class="lambda" x="50" y="260" width="110" height="50"/>
  <text class="text" x="105" y="290">Auth Function</text>
  
  <rect class="lambda" x="180" y="260" width="110" height="50"/>
  <text class="text" x="235" y="290">User Function</text>
  
  <rect class="lambda" x="310" y="260" width="110" height="50"/>
  <text class="text" x="365" y="290">Order Function</text>
  
  <rect class="lambda" x="440" y="260" width="110" height="50"/>
  <text class="text" x="495" y="290">Payment Function</text>
  
  <rect class="lambda" x="570" y="260" width="110" height="50"/>
  <text class="text" x="625" y="290">Notification</text>
  
  <!-- Event Sources -->
  <rect class="queue" x="50" y="350" width="120" height="50"/>
  <text class="text" x="110" y="380">SQS Queue</text>
  
  <rect class="queue" x="190" y="350" width="120" height="50"/>
  <text class="text" x="250" y="380">SNS Topic</text>
  
  <rect class="queue" x="330" y="350" width="120" height="50"/>
  <text class="text" x="390" y="380">EventBridge</text>
  
  <rect class="storage" x="470" y="350" width="120" height="50"/>
  <text class="text" x="530" y="380">S3 Events</text>
  
  <rect class="database" x="610" y="350" width="120" height="50"/>
  <text class="text" x="670" y="380">DynamoDB Streams</text>
  
  <!-- Data Layer -->
  <text class="title" x="50" y="440">Managed Services</text>
  
  <rect class="database" x="50" y="460" width="120" height="60"/>
  <text class="text" x="110" y="495">DynamoDB</text>
  
  <rect class="database" x="190" y="460" width="120" height="60"/>
  <text class="text" x="250" y="495">RDS Aurora</text>
  
  <rect class="storage" x="330" y="460" width="120" height="60"/>
  <text class="text" x="390" y="495">S3 Storage</text>
  
  <rect class="storage" x="470" y="460" width="120" height="60"/>
  <text class="text" x="530" y="495">ElastiCache</text>
  
  <rect class="database" x="610" y="460" width="120" height="60"/>
  <text class="text" x="670" y="495">Cognito</text>
  
  <!-- Monitoring -->
  <rect class="api-gateway" x="50" y="540" width="680" height="40"/>
  <text class="text" x="390" y="565">CloudWatch Logs | X-Ray Tracing | CloudWatch Metrics</text>
</svg>