<svg width="120" height="120" xmlns="http://www.w3.org/2000/svg">
  <defs>
    <linearGradient id="genGrad" x1="0%" y1="0%" x2="100%" y2="100%">
      <stop offset="0%" style="stop-color:#10B981;stop-opacity:1" />
      <stop offset="100%" style="stop-color:#059669;stop-opacity:1" />
    </linearGradient>
  </defs>
  
  <!-- AI brain/processor -->
  <circle cx="60" cy="40" r="25" fill="url(#genGrad)"/>
  <circle cx="50" cy="35" r="3" fill="white"/>
  <circle cx="60" cy="32" r="3" fill="white"/>
  <circle cx="70" cy="37" r="3" fill="white"/>
  <circle cx="55" cy="45" r="3" fill="white"/>
  <circle cx="65" cy="48" r="3" fill="white"/>
  
  <!-- Network connections -->
  <line x1="50" y1="35" x2="55" y2="45" stroke="white" stroke-width="1.5"/>
  <line x1="60" y1="32" x2="65" y2="48" stroke="white" stroke-width="1.5"/>
  <line x1="70" y1="37" x2="65" y2="48" stroke="white" stroke-width="1.5"/>
  
  <!-- Generated content/answer -->
  <rect x="20" y="75" width="80" height="35" fill="white" stroke="url(#genGrad)" stroke-width="3" rx="5"/>
  
  <!-- Content lines -->
  <line x1="30" y1="85" x2="90" y2="85" stroke="url(#genGrad)" stroke-width="2"/>
  <line x1="30" y1="92" x2="85" y2="92" stroke="url(#genGrad)" stroke-width="2"/>
  <line x1="30" y1="99" x2="75" y2="99" stroke="url(#genGrad)" stroke-width="2"/>
  
  <!-- Arrow from brain to content -->
  <path d="M 60 65 L 60 75" fill="none" stroke="url(#genGrad)" stroke-width="3" marker-end="url(#arrowhead2)"/>
  
  <defs>
    <marker id="arrowhead2" markerWidth="10" markerHeight="7" 
     refX="9" refY="3.5" orient="auto" markerUnits="strokeWidth">
      <polygon points="0 0, 10 3.5, 0 7" fill="url(#genGrad)" />
    </marker>
  </defs>
</svg>